# xmcd CD database file
#
# Track frame offsets:
#	150
#	31028
#	59157
#	81359
#	102362
#	124416
#	156371
#	184500
#	214806
#	242185
#	259666
#	287270
#
# Disc length: 4232 seconds
#
# Revision: 0
# Processed by: cddbd v1.5.2PL0 Copyright (c) Steve Scherf et al.
# Submitted via: CDex 1.70beta2
#
DISCID=ab10860c
DTITLE=Stekpanna - Standin' Tall
DYEAR=2001
DGENRE=Jazz
TTITLE0=Stekpanna
TTITLE1=Hunnie!
TTITLE2=My Funny Valentine
TTITLE3=Daydreaming
TTITLE4=Davina Dragon
TTITLE5=Vykortsky
TTITLE6=Smoke on the Water
TTITLE7=Going Dutch
TTITLE8=Ain't it Cool
TTITLE9=Alfredo and the Mayor
TTITLE10=Blues i moll
TTITLE11=Standin' Tall
EXTD=YEAR: 2001
EXTT0=
EXTT1=
EXTT2=
EXTT3=
EXTT4=
EXTT5=
EXTT6=
EXTT7=
EXTT8=
EXTT9=
EXTT10=
EXTT11=
PLAYORDER=
